<?xml version="1.0" encoding="utf-8"?>
<!-- Generator: Adobe Illustrator 24.1.0, SVG Export Plug-In . SVG Version: 6.00 Build 0)  -->
<svg version="1.1" id="Layer_1" xmlns="http://www.w3.org/2000/svg" xmlns:xlink="http://www.w3.org/1999/xlink" x="0px" y="0px"
	 viewBox="0 0 230 230" style="enable-background:new 0 0 230 230;" xml:space="preserve">
<style type="text/css">
	.st0{fill:#265173;}
	.st1{display:none;fill:#F0EFEF;}
	.st2{fill:#FFFFFF;}
</style>
<rect class="st0" width="230" height="230"/>
<rect x="35" y="35" class="st1" width="160" height="160"/>
<path class="st2" d="M40.29,120.36c-0.07,0.07-0.11,0.19-0.11,0.37v6.32c0,0.32-0.07,0.55-0.22,0.69c-0.15,0.14-0.38,0.21-0.7,0.21
	h-3.37c-0.32,0-0.55-0.06-0.69-0.2s-0.2-0.36-0.2-0.69v-24.11c0-0.32,0.06-0.55,0.2-0.69s0.36-0.2,0.69-0.2h7.99
	c7.32,0,10.98,2.98,10.98,8.95c0,3.01-0.96,5.3-2.88,6.88c-1.93,1.58-4.73,2.36-8.4,2.36h-2.92
	C40.5,120.24,40.37,120.28,40.29,120.36 M40.29,106.97c-0.07,0.07-0.11,0.19-0.11,0.37v7.62c0,0.18,0.04,0.3,0.11,0.37
	s0.19,0.11,0.37,0.11h2.96c1.9,0,3.35-0.36,4.36-1.07s1.52-1.82,1.52-3.29c0-1.48-0.49-2.55-1.48-3.22c-0.98-0.67-2.46-1-4.4-1
	h-2.96C40.5,106.86,40.37,106.9,40.29,106.97 M67.33,111.04l7.47,15.75c0.22,0.47,0.44,0.78,0.67,0.93s0.55,0.22,0.96,0.22h3.51
	c0.54,0,0.82-0.18,0.82-0.52c0-0.12-0.06-0.33-0.19-0.63l-11.58-23.48c-0.37-0.74-0.65-1.23-0.85-1.48
	c-0.19-0.25-0.44-0.37-0.7-0.37c-0.27,0-0.52,0.12-0.74,0.37c-0.22,0.25-0.51,0.74-0.85,1.48L54.35,126.8
	c-0.12,0.3-0.19,0.51-0.19,0.63c0,0.34,0.27,0.52,0.82,0.52h3.29c0.44,0,0.78-0.07,1-0.22c0.22-0.15,0.44-0.45,0.67-0.93
	L67.33,111.04z M100.53,102.26c-0.14,0.14-0.2,0.36-0.2,0.69v14.75l-14.09-14.9c-0.44-0.44-0.8-0.75-1.06-0.93
	c-0.26-0.18-0.5-0.26-0.72-0.26c-0.55,0-0.82,0.44-0.82,1.33v24.11c0,0.32,0.06,0.55,0.2,0.69c0.14,0.14,0.36,0.2,0.69,0.2h3.36
	c0.32,0,0.56-0.06,0.7-0.2s0.22-0.36,0.22-0.69v-14.76l14.09,14.9c0.44,0.44,0.79,0.75,1.04,0.93c0.25,0.18,0.48,0.26,0.7,0.26
	c0.3,0,0.51-0.11,0.65-0.33c0.14-0.22,0.2-0.56,0.2-1v-24.1c0-0.32-0.07-0.55-0.22-0.69c-0.15-0.14-0.38-0.2-0.7-0.2h-3.36
	C100.89,102.05,100.66,102.12,100.53,102.26 M121.8,118.96l-7.47-15.75c-0.22-0.44-0.44-0.74-0.67-0.91
	c-0.22-0.16-0.55-0.24-0.96-0.24h-3.51c-0.55,0-0.82,0.18-0.82,0.52c0,0.12,0.06,0.33,0.19,0.63l11.57,23.48
	c0.34,0.71,0.63,1.2,0.85,1.46c0.22,0.26,0.45,0.39,0.7,0.39c0.27,0,0.52-0.12,0.74-0.37s0.5-0.74,0.85-1.48l11.5-23.48
	c0.12-0.3,0.19-0.5,0.19-0.63c0-0.34-0.27-0.52-0.82-0.52h-3.29c-0.44,0-0.78,0.08-1,0.24c-0.22,0.16-0.44,0.46-0.67,0.91
	L121.8,118.96z M142.81,127.74c0.15-0.14,0.22-0.36,0.22-0.69v-24.11c0-0.32-0.07-0.55-0.22-0.69s-0.38-0.2-0.7-0.2h-3.36
	c-0.32,0-0.55,0.06-0.69,0.2s-0.2,0.36-0.2,0.69v24.11c0,0.32,0.06,0.55,0.2,0.69s0.36,0.2,0.69,0.2h3.36
	C142.43,127.95,142.66,127.87,142.81,127.74 M159.34,118.96l-7.47-15.75c-0.22-0.44-0.44-0.74-0.67-0.91
	c-0.22-0.16-0.55-0.24-0.96-0.24h-3.51c-0.55,0-0.82,0.18-0.82,0.52c0,0.12,0.06,0.33,0.19,0.63l11.57,23.48
	c0.34,0.71,0.63,1.2,0.85,1.46c0.22,0.26,0.45,0.39,0.7,0.39c0.27,0,0.52-0.12,0.74-0.37c0.22-0.25,0.5-0.74,0.85-1.48l11.5-23.48
	c0.12-0.3,0.19-0.5,0.19-0.63c0-0.34-0.27-0.52-0.82-0.52h-3.29c-0.44,0-0.78,0.08-1,0.24c-0.22,0.16-0.44,0.46-0.67,0.91
	L159.34,118.96z M181.57,111.04l7.47,15.75c0.22,0.47,0.44,0.78,0.67,0.93c0.22,0.15,0.55,0.22,0.96,0.22h3.51
	c0.54,0,0.82-0.18,0.82-0.52c0-0.12-0.06-0.33-0.19-0.63l-11.57-23.48c-0.37-0.74-0.65-1.23-0.85-1.48
	c-0.19-0.25-0.44-0.37-0.7-0.37c-0.27,0-0.52,0.12-0.74,0.37c-0.22,0.25-0.51,0.74-0.85,1.48l-11.5,23.48
	c-0.12,0.3-0.19,0.51-0.19,0.63c0,0.34,0.27,0.52,0.82,0.52h3.29c0.44,0,0.78-0.07,1-0.22s0.44-0.45,0.67-0.93L181.57,111.04z"/>
</svg>
